<svg xmlns="http://www.w3.org/2000/svg" xmlns:xlink="http://www.w3.org/1999/xlink" width="450" zoomAndPan="magnify" viewBox="0 0 337.5 337.500003" height="450" preserveAspectRatio="xMidYMid meet" version="1.0"><defs><clipPath id="242ffd74bb"><path d="M 0 0 L 337 0 L 337 337 L 0 337 Z M 0 0 " clip-rule="nonzero"/></clipPath><clipPath id="bd598296d3"><path d="M 18.722656 0 L 318.277344 0 C 323.242188 0 328.007812 1.972656 331.515625 5.484375 C 335.027344 8.996094 337 13.757812 337 18.722656 L 337 318.277344 C 337 323.242188 335.027344 328.007812 331.515625 331.515625 C 328.007812 335.027344 323.242188 337 318.277344 337 L 18.722656 337 C 13.757812 337 8.996094 335.027344 5.484375 331.515625 C 1.972656 328.007812 0 323.242188 0 318.277344 L 0 18.722656 C 0 13.757812 1.972656 8.996094 5.484375 5.484375 C 8.996094 1.972656 13.757812 0 18.722656 0 Z M 18.722656 0 " clip-rule="nonzero"/></clipPath><clipPath id="9f3e814dae"><path d="M 131.140625 24.09375 L 205.859375 24.09375 L 205.859375 312.757812 L 131.140625 312.757812 Z M 131.140625 24.09375 " clip-rule="nonzero"/></clipPath><clipPath id="246ccb7af0"><path d="M 131.140625 267.378906 L 131.140625 33.660156 C 131.140625 30.421875 132.800781 27.410156 135.542969 25.6875 C 138.285156 23.964844 141.71875 23.769531 144.636719 25.175781 L 192.363281 48.132812 C 200.613281 52.105469 205.859375 60.449219 205.859375 69.605469 L 205.859375 303.328125 C 205.859375 306.5625 204.195312 309.574219 201.453125 311.296875 C 198.714844 313.019531 195.28125 313.214844 192.363281 311.8125 L 144.636719 288.851562 C 136.386719 284.882812 131.140625 276.535156 131.140625 267.378906 Z M 131.140625 267.378906 " clip-rule="nonzero"/></clipPath><clipPath id="edc622c286"><path d="M 131.140625 24.007812 L 206 24.007812 L 206 313 L 131.140625 313 Z M 131.140625 24.007812 " clip-rule="nonzero"/></clipPath><clipPath id="56ad248205"><path d="M 131.140625 267.375 L 131.140625 33.675781 C 131.140625 30.4375 132.800781 27.425781 135.542969 25.703125 C 138.285156 23.980469 141.71875 23.789062 144.636719 25.191406 L 192.355469 48.148438 C 200.605469 52.117188 205.851562 60.464844 205.851562 69.617188 L 205.851562 303.320312 C 205.851562 306.558594 204.1875 309.566406 201.449219 311.289062 C 198.707031 313.011719 195.273438 313.207031 192.355469 311.804688 L 144.636719 288.84375 C 136.386719 284.875 131.140625 276.53125 131.140625 267.375 Z M 131.140625 267.375 " clip-rule="nonzero"/></clipPath><clipPath id="060b2cd381"><path d="M 209.601562 25.511719 L 284.320312 25.511719 L 284.320312 311.550781 L 209.601562 311.550781 Z M 209.601562 25.511719 " clip-rule="nonzero"/></clipPath><clipPath id="14473f2e4a"><path d="M 284.320312 263.640625 L 284.320312 37.519531 C 284.320312 33.472656 282.242188 29.710938 278.816406 27.558594 C 275.390625 25.402344 271.097656 25.160156 267.449219 26.914062 L 226.472656 46.628906 C 216.160156 51.589844 209.601562 62.023438 209.601562 73.46875 L 209.601562 299.585938 C 209.601562 303.632812 211.679688 307.398438 215.105469 309.550781 C 218.53125 311.703125 222.824219 311.949219 226.472656 310.191406 L 267.449219 290.480469 C 277.761719 285.519531 284.320312 275.085938 284.320312 263.640625 Z M 284.320312 263.640625 " clip-rule="nonzero"/></clipPath><clipPath id="73c7b0c1e4"><path d="M 209.433594 25.550781 L 284.320312 25.550781 L 284.320312 312 L 209.433594 312 Z M 209.433594 25.550781 " clip-rule="nonzero"/></clipPath><clipPath id="eefb3b050f"><path d="M 284.320312 263.632812 L 284.320312 37.53125 C 284.320312 33.484375 282.242188 29.722656 278.816406 27.570312 C 275.390625 25.414062 271.097656 25.171875 267.449219 26.925781 L 226.476562 46.640625 C 216.164062 51.601562 209.609375 62.03125 209.609375 73.476562 L 209.609375 299.574219 C 209.609375 303.621094 211.6875 307.386719 215.113281 309.539062 C 218.539062 311.691406 222.832031 311.933594 226.476562 310.179688 L 267.449219 290.46875 C 277.761719 285.507812 284.320312 275.074219 284.320312 263.632812 Z M 284.320312 263.632812 " clip-rule="nonzero"/></clipPath><clipPath id="07e471eb72"><path d="M 52.347656 25.511719 L 127.070312 25.511719 L 127.070312 311.550781 L 52.347656 311.550781 Z M 52.347656 25.511719 " clip-rule="nonzero"/></clipPath><clipPath id="e6948f2953"><path d="M 127.070312 263.640625 L 127.070312 37.519531 C 127.070312 33.472656 124.988281 29.710938 121.5625 27.558594 C 118.136719 25.402344 113.84375 25.160156 110.199219 26.914062 L 69.222656 46.628906 C 58.90625 51.589844 52.347656 62.023438 52.347656 73.46875 L 52.347656 299.585938 C 52.347656 303.632812 54.429688 307.398438 57.855469 309.550781 C 61.28125 311.703125 65.574219 311.949219 69.222656 310.191406 L 110.199219 290.480469 C 120.511719 285.519531 127.070312 275.085938 127.070312 263.640625 Z M 127.070312 263.640625 " clip-rule="nonzero"/></clipPath><clipPath id="6319d82b61"><path d="M 52.179688 25.550781 L 127.070312 25.550781 L 127.070312 312 L 52.179688 312 Z M 52.179688 25.550781 " clip-rule="nonzero"/></clipPath><clipPath id="26e8cc6a98"><path d="M 127.070312 263.632812 L 127.070312 37.53125 C 127.070312 33.484375 124.988281 29.722656 121.5625 27.570312 C 118.136719 25.414062 113.847656 25.171875 110.199219 26.925781 L 69.226562 46.640625 C 58.914062 51.601562 52.355469 62.03125 52.355469 73.476562 L 52.355469 299.574219 C 52.355469 303.621094 54.433594 307.386719 57.859375 309.539062 C 61.285156 311.691406 65.578125 311.933594 69.226562 310.179688 L 110.199219 290.46875 C 120.511719 285.507812 127.070312 275.074219 127.070312 263.632812 Z M 127.070312 263.632812 " clip-rule="nonzero"/></clipPath></defs><g clip-path="url(#242ffd74bb)"><g clip-path="url(#bd598296d3)"><path fill="#ffffff" d="M 0 0 L 337 0 L 337 337 L 0 337 Z M 0 0 " fill-opacity="1" fill-rule="nonzero"/><path stroke-linecap="butt" transform="matrix(0.748891, 0, 0, 0.748891, 0, 0.0000114852)" fill="none" stroke-linejoin="miter" d="M 25.000526 -0.0000153363 L 424.998505 -0.0000153363 C 431.628104 -0.0000153363 437.991685 2.63409 442.675697 7.323318 C 447.364926 12.012547 449.999031 18.370911 449.999031 25.00051 L 449.999031 424.99849 C 449.999031 431.628089 447.364926 437.99167 442.675697 442.675682 C 437.991685 447.364911 431.628104 449.999016 424.998505 449.999016 L 25.000526 449.999016 C 18.370927 449.999016 12.012562 447.364911 7.323334 442.675682 C 2.634105 437.99167 0 431.628089 0 424.99849 L 0 25.00051 C 0 18.370911 2.634105 12.012547 7.323334 7.323318 C 12.012562 2.63409 18.370927 -0.0000153363 25.000526 -0.0000153363 Z M 25.000526 -0.0000153363 " stroke="#ffffff" stroke-width="10" stroke-opacity="1" stroke-miterlimit="4"/></g></g><g clip-path="url(#9f3e814dae)"><g clip-path="url(#246ccb7af0)"><path fill="#e63946" d="M 131.140625 318.304688 L 131.140625 18.550781 L 205.859375 18.550781 L 205.859375 318.304688 Z M 131.140625 318.304688 " fill-opacity="1" fill-rule="nonzero"/></g></g><g clip-path="url(#edc622c286)"><g clip-path="url(#56ad248205)"><path stroke-linecap="butt" transform="matrix(0, -0.74889, 0.74889, 0, 131.139167, 318.296115)" fill="none" stroke-linejoin="miter" d="M 67.995412 0.00194677 L 380.056031 0.00194677 C 384.380137 0.00194677 388.401711 2.218768 390.701989 5.880435 C 393.002267 9.542102 393.257854 14.12701 391.385292 18.023399 L 360.730566 81.742665 C 355.43106 92.758963 344.284361 99.764118 332.063156 99.764118 L 19.99732 99.764118 C 15.673215 99.764118 11.656857 97.542081 9.356579 93.88563 C 7.0563 90.223962 6.795498 85.639055 8.66806 81.742665 L 39.328001 18.023399 C 44.627508 7.007102 55.768991 0.00194677 67.995412 0.00194677 Z M 67.995412 0.00194677 " stroke="#ffffff" stroke-width="10" stroke-opacity="1" stroke-miterlimit="4"/></g></g><g clip-path="url(#060b2cd381)"><g clip-path="url(#14473f2e4a)"><path fill="#000000" d="M 284.320312 18.800781 L 284.320312 318.261719 L 209.601562 318.261719 L 209.601562 18.800781 Z M 284.320312 18.800781 " fill-opacity="1" fill-rule="nonzero"/></g></g><g clip-path="url(#73c7b0c1e4)"><g clip-path="url(#eefb3b050f)"><path stroke-linecap="butt" transform="matrix(0, 0.74889, -0.74889, 0, 284.321019, 18.811398)" fill="none" stroke-linejoin="miter" d="M 326.912184 0.000943411 L 24.996782 0.000943411 C 19.592954 0.000943411 14.569898 2.775882 11.695855 7.350358 C 8.816595 11.924834 8.4932 17.657272 10.835207 22.529063 L 37.160611 77.240211 C 43.784994 91.010583 57.711847 99.763114 72.994874 99.763114 L 374.90506 99.763114 C 380.308888 99.763114 385.33716 96.988176 388.211203 92.4137 C 391.085247 87.839224 391.408642 82.106785 389.066635 77.240211 L 362.746447 22.529063 C 356.122064 8.758691 342.189995 0.000943411 326.912184 0.000943411 Z M 326.912184 0.000943411 " stroke="#ffffff" stroke-width="10" stroke-opacity="1" stroke-miterlimit="4"/></g></g><g clip-path="url(#07e471eb72)"><g clip-path="url(#e6948f2953)"><path fill="#000000" d="M 127.070312 18.800781 L 127.070312 318.261719 L 52.347656 318.261719 L 52.347656 18.800781 Z M 127.070312 18.800781 " fill-opacity="1" fill-rule="nonzero"/></g></g><g clip-path="url(#6319d82b61)"><g clip-path="url(#26e8cc6a98)"><path stroke-linecap="butt" transform="matrix(0, 0.74889, -0.74889, 0, 127.06927, 18.811398)" fill="none" stroke-linejoin="miter" d="M 326.912184 -0.00139269 L 24.996782 -0.00139269 C 19.592954 -0.00139269 14.569898 2.778762 11.695855 7.353238 C 8.816595 11.927714 8.4932 17.654936 10.835207 22.526727 L 37.160611 77.237875 C 43.784994 91.008247 57.711847 99.765994 72.994874 99.765994 L 374.90506 99.765994 C 380.308888 99.765994 385.33716 96.991056 388.211203 92.41658 C 391.085247 87.842104 391.408642 82.109665 389.066635 77.237875 L 362.746447 22.526727 C 356.122064 8.756355 342.189995 -0.00139269 326.912184 -0.00139269 Z M 326.912184 -0.00139269 " stroke="#ffffff" stroke-width="10" stroke-opacity="1" stroke-miterlimit="4"/></g></g></svg>